<svg width="584" height="182" viewBox="0 0 584 182" fill="none" xmlns="http://www.w3.org/2000/svg">
<g opacity="0.1">
<rect y="66" width="8" height="50" rx="4" fill="#0EA5E9" fill-opacity="0.5"/>
<rect x="18" y="50" width="8" height="82" rx="4" fill="#0EA5E9" fill-opacity="0.5"/>
<rect x="36" y="36" width="8" height="110" rx="4" fill="#0EA5E9" fill-opacity="0.5"/>
<rect x="54" y="36" width="8" height="110" rx="4" fill="#0EA5E9" fill-opacity="0.5"/>
<rect x="72" y="9" width="8" height="164" rx="4" fill="#0EA5E9"/>
<rect x="90" y="61" width="8" height="60" rx="4" fill="#0EA5E9" fill-opacity="0.5"/>
<rect x="108" y="36" width="8" height="110" rx="4" fill="#0EA5E9" fill-opacity="0.5"/>
<rect x="126" y="21" width="8" height="140" rx="4" fill="#0EA5E9" fill-opacity="0.5"/>
<rect x="144" width="8" height="182" rx="4" fill="#0EA5E9"/>
<rect x="162" y="36" width="8" height="110" rx="4" fill="#0EA5E9" fill-opacity="0.5"/>
<rect x="180" y="44" width="8" height="94" rx="4" fill="#0EA5E9" fill-opacity="0.5"/>
<rect x="198" y="61" width="8" height="60" rx="4" fill="#0EA5E9" fill-opacity="0.5"/>
<rect x="216" y="36" width="8" height="110" rx="4" fill="#0EA5E9" fill-opacity="0.5"/>
<rect x="234" y="29" width="8" height="124" rx="4" fill="#0EA5E9"/>
<rect x="252" y="61" width="8" height="60" rx="4" fill="#0EA5E9" fill-opacity="0.5"/>
<rect x="270" y="45" width="8" height="92" rx="4" fill="#0EA5E9" fill-opacity="0.5"/>
<rect x="288" y="22.5" width="8" height="137" rx="4" fill="#0EA5E9"/>
<rect x="306" y="73" width="8" height="36" rx="4" fill="#0EA5E9" fill-opacity="0.5"/>
<rect x="324" y="50" width="8" height="82" rx="4" fill="#0EA5E9" fill-opacity="0.5"/>
<rect x="342" width="8" height="182" rx="4" fill="#0EA5E9"/>
<rect x="360" y="61" width="8" height="60" rx="4" fill="#0EA5E9" fill-opacity="0.5"/>
<rect x="378" y="36" width="8" height="110" rx="4" fill="#0EA5E9" fill-opacity="0.5"/>
<rect x="396" y="19" width="8" height="144" rx="4" fill="#0EA5E9"/>
<rect x="414" y="29" width="8" height="124" rx="4" fill="#0EA5E9" fill-opacity="0.5"/>
<rect x="432" y="50" width="8" height="82" rx="4" fill="#0EA5E9" fill-opacity="0.5"/>
<rect x="450" y="9" width="8" height="164" rx="4" fill="#0EA5E9"/>
<rect x="468" y="53" width="8" height="76" rx="4" fill="#0EA5E9" fill-opacity="0.5"/>
<rect x="486" y="26.5" width="8" height="129" rx="4" fill="#0EA5E9" fill-opacity="0.5"/>
<rect x="504" y="21" width="8" height="140" rx="4" fill="#0EA5E9"/>
<rect x="522" y="32.5" width="8" height="117" rx="4" fill="#0EA5E9" fill-opacity="0.5"/>
<rect x="540" y="53" width="8" height="76" rx="4" fill="#0EA5E9" fill-opacity="0.5"/>
<rect x="558" y="73" width="8" height="36" rx="4" fill="#0EA5E9" fill-opacity="0.5"/>
<rect x="576" y="66" width="8" height="50" rx="4" fill="#0EA5E9" fill-opacity="0.5"/>
</g>
<path opacity="0.2" d="M273.5 155.75L282.75 109.5L245.75 95.625L310.5 26.25L301.25 72.5L338.25 86.375L273.5 155.75Z" fill="#0EA5E9"/>
<path d="M273.5 162.417L282.75 116.167L245.75 102.292L310.5 32.9165L301.25 79.1665L338.25 93.0415L273.5 162.417Z" stroke="#0EA5E9" stroke-width="10" stroke-miterlimit="3.99933" stroke-linecap="round" stroke-linejoin="round"/>
</svg>
